<?xml version="1.0" encoding="UTF-8"?>
<!DOCTYPE svg PUBLIC "-//W3C//DTD SVG 1.1//EN" "http://www.w3.org/Graphics/SVG/1.1/DTD/svg11.dtd">
<svg xmlns="http://www.w3.org/2000/svg" version="1.1" width="230px" height="233px"
     style="shape-rendering:geometricPrecision; text-rendering:geometricPrecision; image-rendering:optimizeQuality; fill-rule:evenodd; clip-rule:evenodd">
<g><path style="opacity:0.885" fill="#f960a3" d="M 109.5,-0.5 C 115.833,-0.5 122.167,-0.5 128.5,-0.5C 143.498,1.72155 157.498,6.72155 170.5,14.5C 170.5,17.5 170.5,20.5 170.5,23.5C 150.96,11.281 129.627,5.61436 106.5,6.5C 108.05,4.46134 109.05,2.12801 109.5,-0.5 Z"/></g>
<g><path style="opacity:0.884" fill="#f3418d" d="M 99.5,-0.5 C 102.833,-0.5 106.167,-0.5 109.5,-0.5C 109.05,2.12801 108.05,4.46134 106.5,6.5C 81.0395,8.56942 59.0395,18.2361 40.5,35.5C 39.612,32.9455 39.2786,30.2788 39.5,27.5C 56.7016,12.2333 76.7016,2.89999 99.5,-0.5 Z"/></g>
<g><path style="opacity:0.89" fill="#fc70af" d="M 170.5,14.5 C 188.068,24.0675 202.068,37.4008 212.5,54.5C 212.431,60.1113 211.765,65.778 210.5,71.5C 201.868,51.5623 188.535,35.5623 170.5,23.5C 170.5,20.5 170.5,17.5 170.5,14.5 Z"/></g>
<g><path style="opacity:0.795" fill="#ef2f7e" d="M 39.5,27.5 C 39.2786,30.2788 39.612,32.9455 40.5,35.5C 16.3096,59.1902 4.47627,88.1902 5,122.5C 4.66667,118.5 4.33333,114.5 4,110.5C 3.66667,113.167 3.33333,115.833 3,118.5C 1.74578,115.024 1.07912,111.358 1,107.5C 0.500513,113.491 0.333847,119.491 0.5,125.5C 0.166667,125.5 -0.166667,125.5 -0.5,125.5C -0.5,118.833 -0.5,112.167 -0.5,105.5C 3.29935,74.5671 16.6327,48.5671 39.5,27.5 Z"/></g>
<g><path style="opacity:0.855" fill="#fe79b6" d="M 212.5,54.5 C 215.812,59.1126 218.646,64.1126 221,69.5C 225.06,80.6676 227.894,92.001 229.5,103.5C 229.5,111.833 229.5,120.167 229.5,128.5C 227.48,146.894 221.48,163.894 211.5,179.5C 210.465,177.795 210.465,176.128 211.5,174.5C 209.321,172.9 209.654,171.4 212.5,170C 211.947,165.767 211.28,161.267 210.5,156.5C 221.134,128.171 221.134,99.8378 210.5,71.5C 211.765,65.778 212.431,60.1113 212.5,54.5 Z"/></g>
<g><path style="opacity:0.9" fill="#f3428d" d="M 112.5,69.5 C 112.5,71.5 112.5,73.5 112.5,75.5C 107.426,78.202 106.259,82.202 109,87.5C 110.652,88.3994 112.152,89.3994 113.5,90.5C 112.549,91.9187 112.216,93.5853 112.5,95.5C 108.853,95.6216 106.019,97.2882 104,100.5C 104.681,108.978 101.181,111.311 93.5,107.5C 91.3453,100.159 94.012,96.9926 101.5,98C 103.019,96.6487 104.352,95.1487 105.5,93.5C 102.752,90.3393 101.419,86.6726 101.5,82.5C 99.1432,82.3367 96.8098,82.5034 94.5,83C 87.5788,87.5995 84.4121,85.7662 85,77.5C 88.5434,74.6198 91.7101,74.9532 94.5,78.5C 96.8333,79.8333 99.1667,79.8333 101.5,78.5C 102.779,75.8883 104.445,73.5549 106.5,71.5C 105,68.5 103.5,65.5 102,62.5C 99.5551,61.0936 97.0551,59.7602 94.5,58.5C 92.7129,49.8289 95.8796,47.1622 104,50.5C 106.13,53.6649 105.963,56.6649 103.5,59.5C 105.42,62.3388 107.087,65.3388 108.5,68.5C 109.689,69.4287 111.022,69.762 112.5,69.5 Z M 98.5,52.5 C 100.912,52.6941 101.912,54.0274 101.5,56.5C 100.167,56.5 98.8333,56.5 97.5,56.5C 97.4326,55.0413 97.7659,53.7079 98.5,52.5 Z M 88.5,78.5 C 89.5,78.5 90.5,78.5 91.5,78.5C 91.5,79.8333 91.5,81.1667 91.5,82.5C 88.0464,82.7332 87.0464,81.3999 88.5,78.5 Z M 97.5,101.5 C 98.9953,101.415 99.9953,102.081 100.5,103.5C 99.6798,105.111 98.3464,105.778 96.5,105.5C 96.4326,104.041 96.7659,102.708 97.5,101.5 Z"/></g>
<g><path style="opacity:0.965" fill="#f962a5" d="M 112.5,69.5 C 122.138,68.9689 127.804,73.4689 129.5,83C 131.167,83.6667 132.833,83.6667 134.5,83C 139.165,79.3318 142.499,80.3318 144.5,86C 143.033,90.2945 140.033,91.6279 135.5,90C 134.663,88.9887 134.33,87.8221 134.5,86.5C 132.139,86.3259 129.806,85.9926 127.5,85.5C 125.505,93.6483 120.505,96.9817 112.5,95.5C 112.216,93.5853 112.549,91.9187 113.5,90.5C 122.787,88.1158 124.454,83.2825 118.5,76C 116.527,75.5045 114.527,75.3379 112.5,75.5C 112.5,73.5 112.5,71.5 112.5,69.5 Z M 137.5,84.5 C 138.5,84.5 139.5,84.5 140.5,84.5C 140.5,85.5 140.5,86.5 140.5,87.5C 139.5,87.5 138.5,87.5 137.5,87.5C 137.5,86.5 137.5,85.5 137.5,84.5 Z"/></g>
<g><path style="opacity:0.915" fill="#fd74b1" d="M 176.5,137.5 C 176.5,140.5 176.5,143.5 176.5,146.5C 171.541,145.016 167.041,142.683 163,139.5C 160.376,127.782 165.209,122.615 177.5,124C 182.98,124.816 186.646,127.816 188.5,133C 184.023,136.395 180.023,136.062 176.5,132C 172.604,130.751 171.27,131.917 172.5,135.5C 174.026,135.994 175.359,136.661 176.5,137.5 Z"/></g>
<g><path style="opacity:0.958" fill="#ee2d7d" d="M 40.5,124.5 C 43.8333,124.5 47.1667,124.5 50.5,124.5C 50.5,132.833 50.5,141.167 50.5,149.5C 53.5,149.5 56.5,149.5 59.5,149.5C 59.5,152.5 59.5,155.5 59.5,158.5C 53.1667,158.5 46.8333,158.5 40.5,158.5C 40.5,147.167 40.5,135.833 40.5,124.5 Z"/></g>
<g><path style="opacity:0.908" fill="#f03985" d="M 62.5,124.5 C 65.5,124.5 68.5,124.5 71.5,124.5C 71.5,135.833 71.5,147.167 71.5,158.5C 68.5,158.5 65.5,158.5 62.5,158.5C 62.5,147.167 62.5,135.833 62.5,124.5 Z"/></g>
<g><path style="opacity:0.971" fill="#f2418b" d="M 87.5,124.5 C 87.5,127.167 87.5,129.833 87.5,132.5C 86.1667,134.167 86.1667,135.833 87.5,137.5C 87.5,139.833 87.5,142.167 87.5,144.5C 86.1667,146.5 86.1667,148.5 87.5,150.5C 87.5,153.167 87.5,155.833 87.5,158.5C 83.8333,158.5 80.1667,158.5 76.5,158.5C 76.5,147.167 76.5,135.833 76.5,124.5C 80.1667,124.5 83.8333,124.5 87.5,124.5 Z"/></g>
<g><path style="opacity:0.949" fill="#f44891" d="M 87.5,124.5 C 99.4478,123.91 103.114,129.077 98.5,140C 104.161,144.661 104.828,149.994 100.5,156C 96.4136,158.053 92.0803,158.887 87.5,158.5C 87.5,155.833 87.5,153.167 87.5,150.5C 92.3148,151.145 93.9814,149.312 92.5,145C 90.8659,144.506 89.1992,144.34 87.5,144.5C 87.5,142.167 87.5,139.833 87.5,137.5C 90.4841,137.213 91.8174,135.546 91.5,132.5C 90.1667,132.5 88.8333,132.5 87.5,132.5C 87.5,129.833 87.5,127.167 87.5,124.5 Z"/></g>
<g><path style="opacity:0.922" fill="#f65399" d="M 119.5,124.5 C 121.298,127.831 121.964,131.498 121.5,135.5C 119.026,137.898 117.692,140.898 117.5,144.5C 118.833,144.5 120.167,144.5 121.5,144.5C 121.132,147.533 121.798,150.2 123.5,152.5C 120.482,152.335 117.482,152.502 114.5,153C 113.74,154.441 113.074,155.941 112.5,157.5C 109.167,158.833 105.833,158.833 102.5,157.5C 106.303,146.756 110.303,136.089 114.5,125.5C 116.045,124.548 117.712,124.215 119.5,124.5 Z"/></g>
<g><path style="opacity:0.936" fill="#f85b9f" d="M 119.5,124.5 C 121.924,124.192 124.257,124.526 126.5,125.5C 130.169,134.843 133.836,144.176 137.5,153.5C 138.624,152.086 139.624,150.586 140.5,149C 141.437,148.308 142.103,148.475 142.5,149.5C 142.264,152.609 142.597,155.609 143.5,158.5C 138.593,158.148 133.593,158.148 128.5,158.5C 128.676,154.808 127.009,152.808 123.5,152.5C 121.798,150.2 121.132,147.533 121.5,144.5C 122.497,144.53 123.164,144.03 123.5,143C 122.521,140.567 121.855,138.067 121.5,135.5C 121.964,131.498 121.298,127.831 119.5,124.5 Z"/></g>
<g><path style="opacity:0.974" fill="#fb69a8" d="M 143.5,158.5 C 142.597,155.609 142.264,152.609 142.5,149.5C 144.679,151.164 146.512,150.83 148,148.5C 148.5,140.507 148.666,132.507 148.5,124.5C 151.833,124.5 155.167,124.5 158.5,124.5C 158.859,134.224 158.359,143.891 157,153.5C 153.755,158.062 149.255,159.729 143.5,158.5 Z"/></g>
<g><path style="opacity:0.008" fill="#ff1f5b" d="M 0.5,125.5 C 2.07645,128.228 2.57645,131.228 2,134.5C 1.04673,131.568 0.546728,128.568 0.5,125.5 Z"/></g>
<g><path style="opacity:0.923" fill="#fe77b3" d="M 176.5,137.5 C 184.799,137.962 188.632,142.295 188,150.5C 187.31,153.196 185.81,155.363 183.5,157C 178.589,158.492 173.589,158.826 168.5,158C 163.332,156.34 160.665,152.84 160.5,147.5C 163.833,146.833 167.167,146.167 170.5,145.5C 170.418,148.585 171.918,150.252 175,150.5C 178.74,150.046 179.24,148.713 176.5,146.5C 176.5,143.5 176.5,140.5 176.5,137.5 Z"/></g>
<g><path style="opacity:0.796" fill="#fc6eae" d="M 210.5,156.5 C 211.28,161.267 211.947,165.767 212.5,170C 209.654,171.4 209.321,172.9 211.5,174.5C 210.465,176.128 210.465,177.795 211.5,179.5C 195.176,205.181 172.176,221.848 142.5,229.5C 142.5,228.5 142.5,227.5 142.5,226.5C 136.167,227.167 129.833,227.833 123.5,228.5C 121.901,228.232 120.568,228.566 119.5,229.5C 116.391,229.736 113.391,229.403 110.5,228.5C 113.093,227.465 119.093,226.965 128.5,227C 135.684,226.097 142.684,224.43 149.5,222C 164.618,214.02 178.451,204.187 191,192.5C 191.667,191.833 191.667,191.167 191,190.5C 187.195,192.98 183.695,195.813 180.5,199C 178.945,200.289 177.279,200.956 175.5,201C 190.811,188.876 202.477,174.043 210.5,156.5 Z"/></g>
<g><path style="opacity:0.004" fill="#fe0000" d="M 9.5,160.5 C 8.83333,159.167 8.83333,159.167 9.5,160.5 Z"/></g>
<g><path style="opacity:0.697" fill="#f23d88" d="M 80.5,172.5 C 82.8333,172.5 85.1667,172.5 87.5,172.5C 87.5,173.5 87.5,174.5 87.5,175.5C 82.1667,175.833 82.1667,176.167 87.5,176.5C 87.5,177.5 87.5,178.5 87.5,179.5C 86.1667,179.5 84.8333,179.5 83.5,179.5C 83.5,180.833 83.5,182.167 83.5,183.5C 82.5,183.5 81.5,183.5 80.5,183.5C 80.5,179.833 80.5,176.167 80.5,172.5 Z"/></g>
<g><path style="opacity:0.726" fill="#fc6bab" d="M 147.5,172.5 C 154.985,173.805 156.319,177.305 151.5,183C 146.16,183.989 143.66,181.822 144,176.5C 144.69,174.65 145.856,173.316 147.5,172.5 Z M 147.5,176.5 C 151.541,176.502 152.208,177.835 149.5,180.5C 147.204,179.632 146.537,178.298 147.5,176.5 Z"/></g>
<g><path style="opacity:0.778" fill="#ee2d7c" d="M 55.5,172.5 C 56.5,172.5 57.5,172.5 58.5,172.5C 58.7761,182.842 59.7761,183.009 61.5,173C 62.4491,172.383 63.2825,172.549 64,173.5C 64.7901,176.634 64.4568,179.634 63,182.5C 60.6667,183.833 58.3333,183.833 56,182.5C 55.5017,179.183 55.335,175.85 55.5,172.5 Z"/></g>
<g><path style="opacity:0.771" fill="#f03382" d="M 65.5,172.5 C 67.8568,172.337 70.1902,172.503 72.5,173C 73.6091,174.813 72.9424,175.646 70.5,175.5C 70.5,177.167 70.5,178.833 70.5,180.5C 71.5,180.5 72.5,180.5 73.5,180.5C 73.5,181.5 73.5,182.5 73.5,183.5C 70.8333,183.5 68.1667,183.5 65.5,183.5C 65.955,181.633 66.6216,179.8 67.5,178C 66.6216,176.2 65.955,174.367 65.5,172.5 Z"/></g>
<g><path style="opacity:0.873" fill="#f44791" d="M 88.5,172.5 C 92.7282,171.838 95.7282,173.338 97.5,177C 97.2409,178.261 96.5742,179.261 95.5,180C 96.1258,180.75 96.6258,181.584 97,182.5C 98.5196,179.618 99.8529,176.618 101,173.5C 101.718,172.549 102.551,172.383 103.5,173C 105.122,176.027 106.455,179.194 107.5,182.5C 105.635,183.666 103.968,183.333 102.5,181.5C 98.6339,184.484 95.1339,184.151 92,180.5C 91.5172,181.448 91.3505,182.448 91.5,183.5C 90.5,183.5 89.5,183.5 88.5,183.5C 88.5,179.833 88.5,176.167 88.5,172.5 Z M 91.5,175.5 C 93.337,175.639 93.6704,176.306 92.5,177.5C 91.7025,177.043 91.3691,176.376 91.5,175.5 Z"/></g>
<g><path style="opacity:0.75" fill="#f65498" d="M 108.5,172.5 C 109.822,172.33 110.989,172.663 112,173.5C 112.471,175.246 113.138,176.913 114,178.5C 114.278,174.874 116.112,172.874 119.5,172.5C 119.5,176.167 119.5,179.833 119.5,183.5C 117.876,183.64 116.71,182.973 116,181.5C 115.612,182.428 114.945,183.095 114,183.5C 112.31,182.851 110.477,182.851 108.5,183.5C 108.5,179.833 108.5,176.167 108.5,172.5 Z"/></g>
<g><path style="opacity:0.798" fill="#f85a9e" d="M 121.5,172.5 C 123.527,172.338 125.527,172.505 127.5,173C 127.957,173.414 128.291,173.914 128.5,174.5C 127.271,175.281 125.938,175.781 124.5,176C 125.448,176.483 126.448,176.649 127.5,176.5C 127.5,177.5 127.5,178.5 127.5,179.5C 123.828,180.045 124.162,180.378 128.5,180.5C 128.5,181.5 128.5,182.5 128.5,183.5C 125.833,183.5 123.167,183.5 120.5,183.5C 120.244,179.731 120.577,176.064 121.5,172.5 Z"/></g>
<g><path style="opacity:0.808" fill="#fa61a5" d="M 129.5,172.5 C 130.5,172.5 131.5,172.5 132.5,172.5C 132.326,177.021 132.993,177.355 134.5,173.5C 135.325,172.614 136.325,172.281 137.5,172.5C 138.167,176.5 138.833,176.5 139.5,172.5C 140.5,172.5 141.5,172.5 142.5,172.5C 142.705,176.704 141.538,180.371 139,183.5C 137.118,182.907 136.118,181.573 136,179.5C 135.818,182.881 134.318,183.881 131.5,182.5C 130.198,179.292 129.531,175.959 129.5,172.5 Z"/></g>
<g><path style="opacity:0.805" fill="#fd71b4" d="M 155.5,172.5 C 159.728,171.838 162.728,173.338 164.5,177C 164.241,178.261 163.574,179.261 162.5,180C 164.472,181.813 164.472,182.98 162.5,183.5C 160.912,182.99 159.745,181.99 159,180.5C 158.517,181.448 158.351,182.448 158.5,183.5C 157.5,183.5 156.5,183.5 155.5,183.5C 155.5,179.833 155.5,176.167 155.5,172.5 Z M 158.5,175.5 C 160.337,175.639 160.67,176.306 159.5,177.5C 158.702,177.043 158.369,176.376 158.5,175.5 Z"/></g>
<g><path style="opacity:0.764" fill="#fe7ab5" d="M 165.5,172.5 C 167.017,172.511 168.184,173.177 169,174.5C 170.241,172.579 171.741,172.246 173.5,173.5C 172.5,174.833 171.5,176.167 170.5,177.5C 171.248,179.332 172.248,180.999 173.5,182.5C 171.653,183.83 170.153,183.497 169,181.5C 168.29,182.973 167.124,183.64 165.5,183.5C 165.5,179.833 165.5,176.167 165.5,172.5 Z"/></g>
<g><path style="opacity:0.067" fill="#f4318f" d="M 58.5,204.5 C 61.9795,206.742 65.6462,208.742 69.5,210.5C 70.521,211.002 70.6877,211.668 70,212.5C 67.2458,210.873 64.4125,209.373 61.5,208C 59.9371,207.241 58.9371,206.074 58.5,204.5 Z"/></g>
<g><path style="opacity:0.208" fill="#fb649b" d="M 151.5,213.5 C 152.692,214.566 152.359,215.399 150.5,216C 147.519,217.164 144.519,217.831 141.5,218C 144.859,216.388 148.192,214.888 151.5,213.5 Z"/></g>
<g><path style="opacity:0.31" fill="#f43785" d="M 43.5,199.5 C 60.8766,214.016 80.8766,222.85 103.5,226C 91.6849,226.105 80.3516,223.772 69.5,219C 61.8212,214.775 54.1546,209.775 46.5,204C 44.8588,202.871 43.8588,201.371 43.5,199.5 Z"/></g>
<g><path style="opacity:0.12" fill="#f74c94" d="M 111.5,221.5 C 113.966,220.366 116.633,220.199 119.5,221C 116.922,222.813 114.255,222.98 111.5,221.5 Z"/></g>
<g><path style="opacity:0.318" fill="#f64e97" d="M 9.5,160.5 C 25.1104,192.988 50.1104,214.822 84.5,226C 93.2115,228.42 101.878,229.254 110.5,228.5C 113.391,229.403 116.391,229.736 119.5,229.5C 121.099,229.768 122.432,229.434 123.5,228.5C 129.833,227.833 136.167,227.167 142.5,226.5C 142.5,227.5 142.5,228.5 142.5,229.5C 138.407,230.508 134.407,231.508 130.5,232.5C 124.833,232.5 119.167,232.5 113.5,232.5C 114.952,231.698 116.618,231.198 118.5,231C 73.145,230.915 38.645,211.749 15,173.5C 12.5965,169.365 10.7632,165.032 9.5,160.5 Z"/></g>
</svg>
